<svg xmlns="http://www.w3.org/2000/svg" viewBox="0 0 48 110">
  <rect width="48" height="110" rx="12" fill="#07101e"/>
  <!-- Cubo flutuando -->
  <polygon points="24,2 38,9 24,16 10,9"   fill="#F0A020"/>
  <polygon points="10,9 24,16 24,30 10,23"  fill="#C07518"/>
  <polygon points="38,9 24,16 24,30 38,23"  fill="#904E10"/>
  <!-- Coluna: cap laranja -->
  <polygon points="24,34 38,41 24,48 10,41" fill="#D98920"/>
  <polygon points="10,41 24,48 24,56 10,49" fill="#C07518"/>
  <polygon points="38,41 24,48 24,56 38,49" fill="#904E10"/>
  <!-- Coluna: corpo navy -->
  <polygon points="10,49 24,56 24,98 10,91" fill="#1C3F70"/>
  <polygon points="38,49 24,56 24,98 38,101" fill="#0E2448"/>
</svg>
